HIERARCHY
ROOT Hips
{
	OFFSET -3.958830 18.904000 13.208200
	CHANNELS 6 Xposition Yposition Zposition Zrotation Yrotation Xrotation 
	JOINT LHipJoint
	{
		OFFSET 0.000000 0.000000 0.000000
		CHANNELS 3 Zrotation Yrotation Xrotation
		JOINT LeftUpLeg
		{
			OFFSET 1.800000 -1.400000 0.085000
			CHANNELS 3 Zrotation Yrotation Xrotation
			JOINT LeftLeg
			{
				OFFSET 2.215000 -6.000000 0.000000
				CHANNELS 3 Zrotation Yrotation Xrotation
				JOINT LeftFoot
				{
					OFFSET 2.500000 -6.900000 0.000000
					CHANNELS 3 Zrotation Yrotation Xrotation
					JOINT LeftToeBase
					{
						OFFSET 0.200000 -0.500000 1.950000
						CHANNELS 3 Zrotation Yrotation Xrotation
						End Site
						{
							OFFSET 0.000000 0.000000 0.000000
						}
					}
				}
			}
		}
	}
	JOINT RHipJoint
	{
		OFFSET 0.000000 0.000000 0.000000
		CHANNELS 3 Zrotation Yrotation Xrotation
		JOINT RightUpLeg
		{
			OFFSET -1.800000 -1.400000 0.085000
			CHANNELS 3 Zrotation Yrotation Xrotation
			JOINT RightLeg
			{
				OFFSET -2.215000 -6.000000 0.000000
				CHANNELS 3 Zrotation Yrotation Xrotation
				JOINT RightFoot
				{
					OFFSET -2.500000 -6.900000 0.000000
					CHANNELS 3 Zrotation Yrotation Xrotation
					JOINT RightToeBase
					{
						OFFSET -0.200000 -0.500000 1.950000
						CHANNELS 3 Zrotation Yrotation Xrotation
						End Site
						{
							OFFSET 0.000000 0.000000 0.000000
						}
					}
				}
			}
		}
	}
	JOINT LowerBack
	{
		OFFSET 0.000000 0.000000 0.000000
		CHANNELS 3 Zrotation Yrotation Xrotation
		JOINT Spine
		{
			OFFSET -0.087000 1.940000 -0.288900
			CHANNELS 3 Zrotation Yrotation Xrotation
			JOINT Spine1
			{
				OFFSET 0.000000 1.950000 0.060000
				CHANNELS 3 Zrotation Yrotation Xrotation
				JOINT Neck
				{
					OFFSET 0.000000 0.000000 0.000000
					CHANNELS 3 Zrotation Yrotation Xrotation
					JOINT Neck1
					{
						OFFSET 0.000000 1.600000 0.340000
						CHANNELS 3 Zrotation Yrotation Xrotation
						JOINT Head
						{
							OFFSET 0.000000 1.667000 -0.240000
							CHANNELS 3 Zrotation Yrotation Xrotation
							End Site
							{
								OFFSET 0.000000 0.000000 0.000000
							}
						}
					}
				}
				JOINT LeftShoulder
				{
					OFFSET 0.000000 0.000000 0.000000
					CHANNELS 3 Zrotation Yrotation Xrotation
					JOINT LeftArm
					{
						OFFSET 2.700000 1.550000 -0.730000
						CHANNELS 3 Zrotation Yrotation Xrotation
						JOINT LeftForeArm
						{
							OFFSET 5.450000 0.000000 0.000000
							CHANNELS 3 Zrotation Yrotation Xrotation
							JOINT LeftHand
							{
								OFFSET 3.450000 0.000000 0.000000
								CHANNELS 3 Zrotation Yrotation Xrotation
								JOINT LeftHandIndex1
								{
									OFFSET 0.750000 0.000000 0.000000
									CHANNELS 3 Zrotation Yrotation Xrotation
									End Site
									{
										OFFSET 0.000000 0.000000 0.000000
									}
								}
							}
						}
					}
				}
				JOINT RightShoulder
				{
					OFFSET 0.000000 0.000000 0.000000
					CHANNELS 3 Zrotation Yrotation Xrotation
					JOINT RightArm
					{
						OFFSET -2.700000 1.550000 -0.730000
						CHANNELS 3 Zrotation Yrotation Xrotation
						JOINT RightForeArm
						{
							OFFSET -5.450000 0.000000 0.000000
							CHANNELS 3 Zrotation Yrotation Xrotation
							JOINT RightHand
							{
								OFFSET -3.450000 0.000000 0.000000
								CHANNELS 3 Zrotation Yrotation Xrotation
								JOINT RightHandIndex1
								{
									OFFSET -0.750000 0.000000 0.000000
									CHANNELS 3 Zrotation Yrotation Xrotation
									End Site
									{
										OFFSET 0.000000 0.000000 0.000000
									}
								}
							}
						}
					}
				}
			}
		}
	}
}
MOTION
Frames: 4
Frame Time: 0.016667
-1.380100 17.817490 -2.922430 -1.219297 -4.584872 -5.814493 -14.443538 11.849912 1.330287 22.334804 3.630139 -0.695479 1.111557 5.546866 9.905930 -0.169868 4.527849 3.076748 0.450340 0.235470 0.459220 19.002382 -10.476600 5.276400 -35.070034 6.310504 -12.622423 29.220991 -4.997857 -0.275390 -0.683785 -6.289429 2.001739 0.155670 -0.002490 0.086230 -5.704391 2.198393 -8.308822 18.336450 3.601992 7.047098 -7.538520 3.909407 20.497765 5.674769 -3.016912 -17.448399 -2.852067 2.409529 46.995695 -4.998260 2.545530 -5.872240 -5.809562 -24.242292 15.400806 -27.384774 7.740884 0.567780 2.821887 13.829187 0.310475 -4.008265 2.805861 0.356060 0.021330 0.031680 0.070300 -3.637994 31.693434 6.277027 25.024757 51.305192 11.386307 -16.688813 27.062874 -3.746325 2.136925 -1.084103 -0.085610 0.123800 -0.138850 -0.201940 
-1.503700 17.843850 -2.887440 -0.772294 -6.038807 -6.624891 -14.413487 11.826822 1.314231 21.829145 4.174315 1.716658 1.071495 5.693246 9.805585 -0.129592 4.600126 3.063272 0.471950 0.270380 0.475090 19.013819 -10.576954 5.323976 -34.191675 6.494502 -10.891504 28.905335 -4.618139 -1.368842 -0.721156 -6.313228 2.007012 0.171100 -0.030550 0.070400 -5.769115 2.436027 -8.350683 18.050982 4.254344 6.955493 -7.338073 4.327745 21.358003 6.270274 -3.634015 -17.757652 -3.295182 2.863933 48.614321 -4.905990 2.703990 -6.327100 -5.807013 -24.199071 15.852437 -29.561351 9.865940 -0.058989 4.317258 13.621620 0.648934 -3.965607 2.821128 0.366440 -0.004650 0.051580 0.068730 -4.405060 32.466397 5.771871 23.193079 52.305675 10.656147 -18.531623 28.474263 -4.448358 2.166066 -1.007672 -0.077980 0.129070 -0.153490 -0.201780 
-1.671670 17.864600 -2.841620 -0.321930 -7.237663 -7.939230 -14.319775 11.792048 1.258621 20.806436 4.763371 4.240531 1.740456 5.735069 10.443579 -0.140376 4.634391 3.060406 0.509820 0.316620 0.477400 19.068876 -10.830394 5.395398 -32.574672 6.626631 -8.396881 28.511668 -4.252590 -2.554529 -0.785831 -6.381884 2.008772 0.206640 -0.040820 0.066020 -5.989726 2.915471 -8.447422 18.501110 4.931363 7.557864 -7.084234 4.802894 22.791526 6.967449 -4.993453 -17.969054 -4.592084 3.669882 49.398759 -4.221590 2.515250 -8.038430 -4.476941 -23.547652 16.206971 -33.771597 12.934343 -1.534208 8.100351 7.390699 0.850172 -3.845874 2.887486 0.400180 -0.032190 0.071010 0.082920 -6.348028 32.932812 4.613669 21.382429 52.754796 8.537501 -22.649137 30.090317 -6.437901 2.259460 -0.888677 -0.082750 0.153500 -0.157060 -0.201140 
-1.879550 17.879610 -2.783910 -0.072592 -8.305895 -8.620573 -14.277169 11.827808 1.236526 19.743914 5.292713 5.871786 2.625764 5.682777 11.010802 -0.075947 4.542851 3.095939 0.552270 0.382750 0.476210 19.075005 -11.002081 5.449743 -30.904551 6.784826 -6.432663 28.545837 -3.978765 -3.316197 -0.853280 -6.409364 2.045723 0.215460 -0.091070 0.043650 -6.060812 3.136967 -8.549740 18.428536 5.922972 7.473238 -6.465940 5.490112 22.802462 7.414086 -6.080637 -18.584392 -6.167626 3.374376 52.152518 -3.947990 1.404410 -8.100050 -4.492215 -23.503460 16.571812 -35.608257 14.703178 -2.316501 8.119652 7.206295 0.952993 -3.748560 2.924833 0.405250 -0.087070 0.109570 0.118170 -6.813904 33.985036 3.871516 19.707317 51.864518 7.457560 -25.106202 30.312240 -7.591156 2.458747 -0.790651 -0.044170 0.142030 -0.208520 -0.174080 
